<?xml version="1.0" standalone="no"?>
<!DOCTYPE svg PUBLIC "-//W3C//DTD SVG 20010904//EN"
 "http://www.w3.org/TR/2001/REC-SVG-20010904/DTD/svg10.dtd">
<svg version="1.0" xmlns="http://www.w3.org/2000/svg"
 width="206.000000pt" height="206.000000pt" viewBox="0 0 206.000000 206.000000"
 preserveAspectRatio="xMidYMid meet">
<metadata>
Created by potrace 1.14, written by Peter Selinger 2001-2017
</metadata>
<g transform="translate(0.000000,206.000000) scale(0.100000,-0.100000)"
fill="#000000" stroke="none">
<path d="M1447 1695 c-9 -8 -32 -15 -51 -15 -20 0 -36 -4 -36 -10 0 -5 16 -10
36 -10 35 0 36 -1 22 -22 -8 -13 -25 -28 -37 -34 -14 -7 -19 -14 -12 -19 28
-17 68 19 86 75 4 14 12 28 17 31 7 4 6 9 0 13 -6 3 -17 -1 -25 -9z"/>
<path d="M1696 1701 c-4 -6 -18 -11 -32 -11 -22 0 -24 -4 -25 -45 -1 -25 -2
-51 -3 -57 -1 -17 112 -24 127 -9 8 8 3 11 -18 12 -19 1 -23 3 -12 6 11 3 16
11 13 19 -3 7 -2 13 2 13 19 -3 23 2 12 16 -10 12 -10 18 0 30 10 13 9 15 -12
15 -13 0 -29 5 -35 11 -8 8 -13 8 -17 0z m-29 -53 c-3 -8 -6 -5 -6 6 -1 11 2
17 5 13 3 -3 4 -12 1 -19z m73 18 c0 -3 -4 -8 -10 -11 -5 -3 -10 -1 -10 4 0 6
5 11 10 11 6 0 10 -2 10 -4z m-50 -69 c10 -4 8 -6 -7 -6 -16 -1 -23 5 -23 17
0 10 3 13 8 6 4 -6 14 -14 22 -17z"/>
<path d="M1966 1682 c-29 -31 -35 -72 -11 -72 8 0 15 -4 15 -10 0 -5 -7 -10
-16 -10 -8 0 -12 -4 -9 -10 6 -10 115 -10 115 1 0 3 -5 10 -12 17 -9 9 -9 12
0 12 7 0 12 5 12 10 0 6 -25 10 -57 10 -31 0 -53 3 -49 7 3 4 29 6 56 4 53 -3
65 10 33 36 -42 33 -49 33 -77 5z m49 -12 c3 -5 -1 -10 -10 -10 -9 0 -13 5
-10 10 3 6 8 10 10 10 2 0 7 -4 10 -10z m5 -70 c0 -5 -7 -10 -16 -10 -8 0 -12
5 -9 10 3 6 10 10 16 10 5 0 9 -4 9 -10z"/>
<path d="M17 1682 c-23 -25 -21 -32 6 -33 l22 0 -23 -16 c-20 -14 -33 -41 -13
-29 5 3 11 -2 13 -12 4 -14 15 -18 49 -17 40 1 44 3 46 28 1 23 -2 27 -24 27
-25 0 -25 1 -10 18 20 22 22 42 5 42 -7 0 -22 3 -33 6 -13 3 -27 -2 -38 -14z
m50 -18 c-3 -3 -12 -4 -19 -1 -8 3 -5 6 6 6 11 1 17 -2 13 -5z m23 -60 c0 -2
-9 -4 -21 -4 -11 0 -18 4 -14 10 5 8 35 3 35 -6z"/>
<path d="M190 1690 c0 -5 -13 -10 -30 -10 -16 0 -30 -4 -30 -10 0 -5 14 -10
30 -10 17 0 30 -4 30 -10 0 -5 -9 -10 -20 -10 -16 0 -20 -7 -20 -32 0 -33 0
-33 50 -34 l50 0 0 33 c0 26 -4 33 -20 33 -11 0 -20 5 -20 10 0 6 11 10 25 10
14 0 25 5 25 10 0 6 -11 10 -25 10 -14 0 -25 5 -25 10 0 6 -4 10 -10 10 -5 0
-10 -4 -10 -10z m30 -80 c0 -5 -11 -10 -25 -10 -14 0 -25 5 -25 10 0 6 11 10
25 10 14 0 25 -4 25 -10z"/>
<path d="M288 1653 c-3 -27 -7 -55 -9 -63 -3 -12 10 -15 64 -18 43 -2 67 0 67
7 0 6 -3 11 -7 11 -5 0 -6 25 -5 55 l4 55 -55 0 -54 0 -5 -47z"/>
<path d="M602 1670 c-26 -33 -12 -52 19 -24 10 9 22 14 26 11 8 -9 -25 -45
-48 -52 -11 -4 -17 -11 -14 -16 10 -15 23 -10 60 22 38 34 45 63 18 73 -10 3
-22 8 -28 10 -5 3 -20 -8 -33 -24z"/>
<path d="M770 1664 c0 -25 -7 -46 -22 -61 -21 -23 -21 -23 -1 -23 11 0 26 6
32 14 17 20 19 98 4 103 -9 3 -13 -7 -13 -33z"/>
<path d="M1030 1675 c-13 -13 -32 -27 -42 -31 -10 -3 -16 -10 -12 -15 3 -5 14
-7 25 -4 15 5 19 1 19 -19 0 -16 6 -26 15 -26 11 0 15 11 15 38 0 21 5 43 12
50 8 8 9 15 2 22 -7 7 -18 2 -34 -15z"/>
<path d="M1530 1691 c0 -5 -10 -11 -22 -14 -18 -5 -19 -8 -8 -21 10 -13 10
-19 0 -31 -7 -9 -10 -18 -7 -22 9 -8 35 15 42 38 8 25 25 24 25 -1 0 -11 -6
-20 -14 -20 -8 0 -16 -6 -19 -14 -8 -20 19 -40 40 -31 10 5 24 7 31 6 17 -3
15 18 -3 25 -8 4 -15 12 -15 20 0 8 7 14 15 14 24 0 18 20 -9 30 -13 5 -27 14
-31 19 -8 13 -25 14 -25 2z"/>
<path d="M1788 1690 c-1 -5 -1 -34 0 -63 4 -53 4 -54 37 -55 19 -1 37 3 40 9
5 6 12 6 21 -2 11 -9 18 -9 26 -1 9 9 9 12 -1 12 -7 0 -9 5 -5 12 11 18 12 48
2 54 -5 3 -4 12 2 19 14 17 -23 27 -56 15 -15 -6 -24 -6 -24 0 0 13 -37 13
-42 0z m67 -30 c-3 -5 -11 -10 -16 -10 -6 0 -7 5 -4 10 3 6 11 10 16 10 6 0 7
-4 4 -10z m43 -31 c3 -11 2 -11 -7 1 -9 12 -12 13 -20 1 -5 -8 -11 -9 -15 -3
-3 6 0 13 6 15 19 8 31 3 36 -14z"/>
<path d="M452 1674 c-31 -21 -28 -77 5 -82 17 -2 24 5 34 32 13 37 23 44 34
26 10 -16 -5 -50 -21 -50 -8 0 -14 -4 -14 -10 0 -13 16 -13 41 0 27 15 25 64
-3 84 -28 20 -48 20 -76 0z m17 -40 c-10 -23 -13 -25 -16 -11 -3 10 1 25 8 33
17 21 21 11 8 -22z"/>
<path d="M722 1658 c4 -46 28 -49 28 -4 0 26 -4 36 -16 36 -11 0 -14 -8 -12
-32z"/>
<path d="M1120 1680 c0 -5 18 -10 40 -10 22 0 40 5 40 10 0 6 -18 10 -40 10
-22 0 -40 -4 -40 -10z"/>
<path d="M840 1660 c0 -5 9 -10 20 -10 11 0 20 -7 20 -15 0 -9 -9 -15 -25 -15
-14 0 -25 -4 -25 -10 0 -6 27 -10 60 -10 33 0 60 4 60 10 0 6 -11 10 -25 10
-16 0 -25 6 -25 15 0 8 6 15 14 15 8 0 18 5 21 10 4 6 -13 10 -44 10 -28 0
-51 -4 -51 -10z"/>
<path d="M1269 1639 c-29 -26 -31 -30 -11 -26 17 4 22 1 22 -14 0 -10 5 -19
10 -19 6 0 10 13 10 28 0 15 5 33 11 39 6 6 7 13 1 16 -5 4 -24 -7 -43 -24z"/>
<path d="M1100 1650 c0 -5 9 -10 20 -10 24 0 26 -17 3 -42 -14 -15 -14 -18 -1
-18 17 0 48 31 48 48 0 7 9 12 20 12 11 0 20 5 20 10 0 6 -25 10 -55 10 -30 0
-55 -4 -55 -10z"/>
<path d="M955 1360 c-11 -5 -46 -19 -78 -31 -70 -25 -111 -59 -138 -112 -17
-33 -20 -50 -14 -101 13 -111 38 -164 114 -238 38 -36 82 -73 99 -82 39 -20
147 -21 184 -2 40 21 157 137 177 176 39 74 52 200 27 248 -28 53 -126 122
-175 122 -10 0 -21 7 -25 15 -4 12 -22 15 -78 14 -40 0 -82 -4 -93 -9z m-184
-153 c-6 -6 -11 -21 -11 -33 0 -13 -4 -25 -10 -29 -5 -3 -7 -13 -4 -23 2 -9 0
-8 -7 4 -9 17 -7 31 11 70 13 28 24 43 27 36 3 -8 0 -19 -6 -25z m547 -54 c6
-19 7 -35 2 -38 -9 -5 -12 4 -25 69 -6 28 11 6 23 -31z m-546 -75 c-7 -7 -12
-8 -12 -2 0 14 12 26 19 19 2 -3 -1 -11 -7 -17z m278 -108 c0 -5 -4 -11 -10
-11 -5 -1 -16 -2 -22 -3 -26 -4 -32 8 -8 15 36 10 40 10 40 -1z"/>
<path d="M160 1289 c-61 -38 -164 -128 -156 -136 9 -9 332 -83 343 -79 7 3 54
40 103 83 l90 77 -38 12 c-40 14 -216 53 -272 60 -25 4 -45 -1 -70 -17z"/>
<path d="M483 1131 c-35 -32 -63 -62 -63 -67 0 -13 -58 -44 -84 -44 -12 0 -28
-6 -35 -12 -8 -7 -11 -8 -8 -2 10 18 -80 51 -259 94 l-32 7 -1 -89 c-1 -71 1
-88 11 -82 10 5 11 4 1 -7 -7 -7 -13 -26 -13 -42 0 -23 7 -31 35 -43 19 -8 46
-15 60 -16 14 -1 25 -6 25 -11 0 -4 6 -7 13 -5 6 1 29 -4 49 -11 21 -7 42 -10
48 -6 5 3 10 2 10 -3 0 -8 53 -24 77 -23 11 1 12 41 1 41 -5 0 -6 5 -2 11 4 7
6 39 5 73 0 33 3 75 8 91 8 24 10 13 12 -60 2 -49 3 -105 2 -122 l0 -32 38 30
c22 17 46 40 54 52 8 12 15 18 15 14 0 -4 12 4 27 18 15 14 30 25 33 25 3 0
13 15 23 33 14 26 17 52 15 139 l-3 106 -62 -57z m-369 -90 c3 -5 23 -12 43
-17 21 -4 40 -8 43 -9 3 -1 17 -5 33 -9 15 -5 27 -14 27 -22 0 -8 6 -11 18 -7
14 5 15 3 5 -7 -10 -11 -10 -17 0 -29 8 -10 9 -13 0 -8 -15 9 -21 -15 -19 -79
l2 -50 -110 33 c-60 17 -112 30 -116 28 -7 -5 -10 12 -10 69 0 22 -6 43 -12
48 -10 6 -10 8 0 8 7 0 12 13 12 30 0 28 2 30 39 30 22 0 42 -4 45 -9z"/>
<path d="M60 992 c0 -6 7 -12 15 -16 22 -8 18 -23 -6 -29 -24 -6 -22 -25 4
-41 13 -8 20 -7 27 4 9 13 12 13 21 -3 9 -15 12 -16 25 -2 13 13 13 17 1 36
-12 16 -17 18 -23 7 -6 -9 -10 -4 -14 17 -4 21 -12 31 -28 33 -12 2 -22 -1
-22 -6z"/>
<path d="M180 960 c0 -5 5 -10 10 -10 6 0 10 -4 10 -10 0 -5 -7 -10 -15 -10
-8 0 -15 -4 -15 -10 0 -5 7 -10 16 -10 11 0 14 -5 10 -17 -6 -14 8 -32 25 -33
3 0 5 16 3 35 -1 19 2 38 7 41 14 9 -10 34 -32 34 -11 0 -19 -4 -19 -10z"/>
<path d="M382 551 c-45 -44 -61 -66 -53 -74 7 -7 18 -7 36 1 15 7 24 8 20 2
-13 -20 7 -49 40 -60 19 -6 39 -9 45 -5 20 12 10 34 -17 37 -46 5 -42 36 6 55
44 17 59 50 19 39 -74 -20 -73 -21 -33 16 36 33 37 36 19 44 -16 7 -30 -2 -82
-55z"/>
<path d="M864 595 c-4 -18 -15 -28 -34 -32 -18 -3 -27 -10 -23 -18 2 -8 11
-11 19 -8 18 7 18 -4 -1 -57 -19 -54 -19 -62 1 -58 10 2 23 24 33 58 26 85 67
78 45 -7 -4 -14 -14 -23 -25 -23 -12 0 -16 -5 -13 -15 4 -8 17 -15 30 -15 31
0 46 36 42 99 -2 38 -7 47 -24 49 -16 2 -20 8 -16 28 6 34 -25 33 -34 -1z"/>
<path d="M88 603 c-24 -6 -23 -24 2 -30 28 -8 21 -35 -13 -51 -15 -7 -32 -22
-37 -33 -30 -56 37 -84 68 -29 11 19 25 30 40 30 28 0 28 -14 0 -40 -17 -15
-19 -23 -10 -32 9 -9 19 -5 41 16 16 16 34 25 39 22 6 -3 13 2 16 11 4 10 1
20 -9 25 -8 5 -15 18 -15 28 0 11 -7 20 -15 20 -8 0 -15 -4 -15 -10 0 -5 -10
-10 -21 -10 -17 0 -20 4 -15 23 20 70 20 67 -10 66 -16 -1 -37 -3 -46 -6z
m-17 -136 c-10 -9 -11 -8 -5 6 3 10 9 15 12 12 3 -3 0 -11 -7 -18z"/>
<path d="M346 602 c-2 -4 2 -16 10 -26 11 -16 16 -17 29 -6 12 10 13 16 4 26
-12 15 -35 18 -43 6z"/>
<path d="M1175 576 c-62 -20 -89 -36 -77 -48 7 -7 24 -5 55 7 54 20 100 17
105 -8 5 -27 -27 -57 -59 -57 -31 0 -41 -10 -30 -29 6 -10 17 -10 47 -2 21 6
44 14 50 18 19 14 33 50 29 74 -10 48 -56 66 -120 45z"/>
<path d="M955 570 c-9 -15 36 -83 48 -71 7 7 6 20 -2 40 -13 31 -36 47 -46 31z"/>
</g>
</svg>
